# Blender 3.3.0
# www.blender.org
mtllib skydome.mtl
o 球
v 0.000000 0.382683 0.923880
v 0.000000 0.000000 1.000000
v 0.000000 -0.382683 0.923880
v 0.000000 -0.923880 0.382683
v 0.146447 0.923880 0.353553
v 0.270598 0.707107 0.653281
v 0.353553 0.382683 0.853553
v 0.382683 0.000000 0.923880
v 0.353553 -0.382683 0.853553
v 0.270598 -0.707107 0.653281
v 0.146447 -0.923880 0.353553
v 0.270598 0.923880 0.270598
v 0.500000 0.707107 0.500000
v 0.653282 0.382683 0.653281
v 0.707107 0.000000 0.707107
v 0.653282 -0.382683 0.653281
v 0.500000 -0.707107 0.500000
v 0.270598 -0.923880 0.270598
v 0.353553 0.923880 0.146447
v 0.653281 0.707107 0.270598
v 0.853553 0.382683 0.353553
v 0.923880 0.000000 0.382683
v 0.853553 -0.382683 0.353553
v 0.653281 -0.707107 0.270598
v 0.353553 -0.923880 0.146447
v 0.382683 0.923880 -0.000000
v 0.707107 0.707107 -0.000000
v 0.923880 0.382683 -0.000000
v 1.000000 0.000000 -0.000000
v 0.923880 -0.382683 -0.000000
v 0.707107 -0.707107 -0.000000
v 0.382683 -0.923880 -0.000000
v 0.353553 0.923880 -0.146447
v 0.653281 0.707107 -0.270598
v 0.853553 0.382683 -0.353554
v 0.923879 0.000000 -0.382684
v 0.853553 -0.382683 -0.353554
v 0.653281 -0.707107 -0.270598
v 0.353553 -0.923880 -0.146447
v 0.270598 0.923880 -0.270598
v 0.500000 0.707107 -0.500000
v 0.653281 0.382683 -0.653282
v 0.707107 0.000000 -0.707107
v 0.653281 -0.382683 -0.653282
v 0.500000 -0.707107 -0.500000
v 0.270598 -0.923880 -0.270598
v 0.146447 0.923880 -0.353553
v 0.270598 0.707107 -0.653281
v 0.353553 0.382683 -0.853553
v 0.382683 0.000000 -0.923880
v 0.353553 -0.382683 -0.853553
v 0.270598 -0.707107 -0.653281
v 0.146447 -0.923880 -0.353553
v -0.000000 0.923880 -0.382683
v -0.000000 0.707107 -0.707107
v -0.000000 0.382683 -0.923879
v -0.000000 0.000000 -1.000000
v -0.000000 -0.382683 -0.923879
v -0.000000 -0.707107 -0.707107
v -0.000000 -0.923880 -0.382683
v 0.000000 -1.000000 0.000000
v 0.000000 1.000000 0.000000
v -0.146447 0.923880 -0.353553
v -0.270598 0.707107 -0.653281
v -0.353554 0.382683 -0.853553
v -0.382684 0.000000 -0.923879
v -0.353554 -0.382683 -0.853553
v -0.270598 -0.707107 -0.653281
v -0.146447 -0.923880 -0.353553
v -0.270598 0.923880 -0.270598
v -0.500000 0.707107 -0.500000
v -0.653282 0.382683 -0.653281
v -0.707107 0.000000 -0.707106
v -0.653282 -0.382683 -0.653281
v -0.500000 -0.707107 -0.500000
v -0.270598 -0.923880 -0.270598
v -0.353553 0.923880 -0.146446
v -0.653281 0.707107 -0.270598
v -0.853553 0.382683 -0.353553
v -0.923880 0.000000 -0.382683
v -0.853553 -0.382683 -0.353553
v -0.653281 -0.707107 -0.270598
v -0.353553 -0.923880 -0.146446
v -0.382683 0.923880 0.000000
v -0.707107 0.707107 0.000000
v -0.923879 0.382683 0.000000
v -1.000000 0.000000 0.000001
v -0.923879 -0.382683 0.000000
v -0.707107 -0.707107 0.000000
v -0.382683 -0.923880 0.000000
v -0.353553 0.923880 0.146447
v -0.653281 0.707107 0.270598
v -0.853553 0.382683 0.353554
v -0.923879 0.000000 0.382684
v -0.853553 -0.382683 0.353554
v -0.653281 -0.707107 0.270598
v -0.353553 -0.923880 0.146447
v -0.270598 0.923880 0.270598
v -0.500000 0.707107 0.500000
v -0.653281 0.382683 0.653282
v -0.707106 0.000000 0.707107
v -0.653281 -0.382683 0.653282
v -0.500000 -0.707107 0.500000
v -0.270598 -0.923880 0.270598
v -0.146446 0.923880 0.353554
v -0.270598 0.707107 0.653281
v -0.353553 0.382683 0.853553
v -0.382683 0.000000 0.923880
v -0.353553 -0.382683 0.853553
v -0.270598 -0.707107 0.653281
v -0.146446 -0.923880 0.353554
v 0.000000 0.923880 0.382683
v 0.000000 0.707107 0.707107
v 0.000000 -0.707107 0.707107
vn -0.1915 0.1915 -0.9626
vn -0.1632 -0.5481 -0.8203
vn -0.0388 -0.9800 -0.1949
vn -0.0388 0.9800 -0.1949
vn -0.1632 0.5481 -0.8203
vn -0.1915 -0.1915 -0.9626
vn -0.1098 -0.8264 -0.5522
vn -0.1098 0.8264 -0.5522
vn -0.1104 0.9800 -0.1653
vn -0.4647 0.5481 -0.6954
vn -0.5453 -0.1915 -0.8161
vn -0.3128 -0.8264 -0.4681
vn -0.3128 0.8264 -0.4681
vn -0.5453 0.1915 -0.8161
vn -0.4647 -0.5481 -0.6954
vn -0.1104 -0.9800 -0.1653
vn -0.4681 -0.8264 -0.3128
vn -0.4681 0.8264 -0.3128
vn -0.8161 0.1915 -0.5453
vn -0.6954 -0.5481 -0.4647
vn -0.1653 -0.9800 -0.1104
vn -0.1653 0.9800 -0.1104
vn -0.6954 0.5481 -0.4647
vn -0.8161 -0.1915 -0.5453
vn -0.5522 0.8264 -0.1098
vn -0.9626 0.1915 -0.1915
vn -0.8203 -0.5481 -0.1632
vn -0.1949 -0.9800 -0.0388
vn -0.1949 0.9800 -0.0388
vn -0.8203 0.5481 -0.1632
vn -0.9626 -0.1915 -0.1915
vn -0.5522 -0.8264 -0.1098
vn -0.1949 -0.9800 0.0388
vn -0.1949 0.9800 0.0388
vn -0.8203 0.5481 0.1632
vn -0.9626 -0.1915 0.1915
vn -0.5522 -0.8264 0.1098
vn -0.5522 0.8264 0.1098
vn -0.9626 0.1915 0.1915
vn -0.8203 -0.5481 0.1632
vn -0.6954 0.5481 0.4647
vn -0.8161 -0.1915 0.5453
vn -0.4681 -0.8264 0.3128
vn -0.4681 0.8264 0.3128
vn -0.8161 0.1915 0.5453
vn -0.6954 -0.5481 0.4647
vn -0.1653 -0.9800 0.1104
vn -0.1653 0.9800 0.1104
vn -0.3128 0.8264 0.4681
vn -0.5453 0.1915 0.8161
vn -0.4647 -0.5481 0.6954
vn -0.1104 -0.9800 0.1653
vn -0.1104 0.9800 0.1653
vn -0.4647 0.5481 0.6954
vn -0.5453 -0.1915 0.8161
vn -0.3128 -0.8264 0.4681
vn -0.1915 0.1915 0.9626
vn -0.1632 -0.5481 0.8203
vn -0.0388 -0.9800 0.1949
vn -0.0388 0.9800 0.1949
vn -0.1632 0.5481 0.8203
vn -0.1915 -0.1915 0.9626
vn -0.1098 -0.8264 0.5522
vn -0.1098 0.8264 0.5522
vn 0.0388 0.9800 0.1949
vn 0.1632 0.5481 0.8203
vn 0.1915 -0.1915 0.9626
vn 0.1098 -0.8264 0.5522
vn 0.1098 0.8264 0.5522
vn 0.1915 0.1915 0.9626
vn 0.1632 -0.5481 0.8203
vn 0.0388 -0.9800 0.1949
vn 0.5453 -0.1915 0.8161
vn 0.3128 -0.8264 0.4681
vn 0.3128 0.8264 0.4681
vn 0.5453 0.1915 0.8161
vn 0.4647 -0.5481 0.6954
vn 0.1104 -0.9800 0.1653
vn 0.1104 0.9800 0.1653
vn 0.4647 0.5481 0.6954
vn 0.4681 0.8264 0.3128
vn 0.8161 0.1915 0.5453
vn 0.6954 -0.5481 0.4647
vn 0.1653 -0.9800 0.1104
vn 0.1653 0.9800 0.1104
vn 0.6954 0.5481 0.4647
vn 0.8161 -0.1915 0.5453
vn 0.4681 -0.8264 0.3128
vn 0.8203 -0.5481 0.1632
vn 0.1949 -0.9800 0.0388
vn 0.1949 0.9800 0.0388
vn 0.8203 0.5481 0.1632
vn 0.9626 -0.1915 0.1915
vn 0.5522 -0.8264 0.1098
vn 0.5522 0.8264 0.1098
vn 0.9626 0.1915 0.1915
vn 0.1949 0.9800 -0.0388
vn 0.8203 0.5481 -0.1632
vn 0.9626 -0.1915 -0.1915
vn 0.5522 -0.8264 -0.1098
vn 0.5522 0.8264 -0.1098
vn 0.9626 0.1915 -0.1915
vn 0.8203 -0.5481 -0.1632
vn 0.1949 -0.9800 -0.0388
vn 0.4681 -0.8264 -0.3128
vn 0.4681 0.8264 -0.3128
vn 0.8161 0.1915 -0.5453
vn 0.6954 -0.5481 -0.4647
vn 0.1653 -0.9800 -0.1104
vn 0.1653 0.9800 -0.1104
vn 0.6954 0.5481 -0.4647
vn 0.8161 -0.1915 -0.5453
vn 0.3128 0.8264 -0.4681
vn 0.5453 0.1915 -0.8161
vn 0.4647 -0.5481 -0.6954
vn 0.1104 -0.9800 -0.1653
vn 0.1104 0.9800 -0.1653
vn 0.4647 0.5481 -0.6954
vn 0.5453 -0.1915 -0.8161
vn 0.3128 -0.8264 -0.4681
vn 0.0388 -0.9800 -0.1949
vn 0.0388 0.9800 -0.1949
vn 0.1632 0.5481 -0.8203
vn 0.1915 -0.1915 -0.9626
vn 0.1098 -0.8264 -0.5522
vn 0.1098 0.8264 -0.5522
vn 0.1915 0.1915 -0.9626
vn 0.1632 -0.5481 -0.8203
vt 0.750000 0.625000
vt 0.750000 0.500000
vt 0.750000 0.375000
vt 0.750000 0.125000
vt 0.687500 0.875000
vt 0.687500 0.750000
vt 0.687500 0.625000
vt 0.687500 0.500000
vt 0.687500 0.375000
vt 0.687500 0.250000
vt 0.687500 0.125000
vt 0.625000 0.875000
vt 0.625000 0.750000
vt 0.625000 0.625000
vt 0.625000 0.500000
vt 0.625000 0.375000
vt 0.625000 0.250000
vt 0.625000 0.125000
vt 0.562500 0.875000
vt 0.562500 0.750000
vt 0.562500 0.625000
vt 0.562500 0.500000
vt 0.562500 0.375000
vt 0.562500 0.250000
vt 0.562500 0.125000
vt 0.500000 0.875000
vt 0.500000 0.750000
vt 0.500000 0.625000
vt 0.500000 0.500000
vt 0.500000 0.375000
vt 0.500000 0.250000
vt 0.500000 0.125000
vt 0.437500 0.875000
vt 0.437500 0.750000
vt 0.437500 0.625000
vt 0.437500 0.500000
vt 0.437500 0.375000
vt 0.437500 0.250000
vt 0.437500 0.125000
vt 0.375000 0.875000
vt 0.375000 0.750000
vt 0.375000 0.625000
vt 0.375000 0.500000
vt 0.375000 0.375000
vt 0.375000 0.250000
vt 0.375000 0.125000
vt 0.312500 0.875000
vt 0.312500 0.750000
vt 0.312500 0.625000
vt 0.312500 0.500000
vt 0.312500 0.375000
vt 0.312500 0.250000
vt 0.312500 0.125000
vt 0.250000 0.875000
vt 0.250000 0.750000
vt 0.250000 0.625000
vt 0.250000 0.500000
vt 0.250000 0.375000
vt 0.250000 0.250000
vt 0.250000 0.125000
vt 0.718750 0.000000
vt 0.656250 0.000000
vt 0.593750 0.000000
vt 0.531250 0.000000
vt 0.468750 0.000000
vt 0.406250 0.000000
vt 0.343750 0.000000
vt 0.281250 0.000000
vt 0.218750 0.000000
vt 0.156250 0.000000
vt 0.093750 0.000000
vt 0.031250 0.000000
vt 0.968750 0.000000
vt 0.906250 0.000000
vt 0.843750 0.000000
vt 0.781250 0.000000
vt 0.718750 1.000000
vt 0.656250 1.000000
vt 0.593750 1.000000
vt 0.531250 1.000000
vt 0.468750 1.000000
vt 0.406250 1.000000
vt 0.343750 1.000000
vt 0.281250 1.000000
vt 0.218750 1.000000
vt 0.156250 1.000000
vt 0.093750 1.000000
vt 0.031250 1.000000
vt 0.968750 1.000000
vt 0.906250 1.000000
vt 0.843750 1.000000
vt 0.781250 1.000000
vt 0.187500 0.875000
vt 0.187500 0.750000
vt 0.187500 0.625000
vt 0.187500 0.500000
vt 0.187500 0.375000
vt 0.187500 0.250000
vt 0.187500 0.125000
vt 0.125000 0.875000
vt 0.125000 0.750000
vt 0.125000 0.625000
vt 0.125000 0.500000
vt 0.125000 0.375000
vt 0.125000 0.250000
vt 0.125000 0.125000
vt 0.062500 0.875000
vt 0.062500 0.750000
vt 0.062500 0.625000
vt 0.062500 0.500000
vt 0.062500 0.375000
vt 0.062500 0.250000
vt 0.062500 0.125000
vt 0.000000 0.875000
vt 1.000000 0.875000
vt 0.000000 0.750000
vt 1.000000 0.750000
vt 0.000000 0.625000
vt 1.000000 0.625000
vt 0.000000 0.500000
vt 1.000000 0.500000
vt 0.000000 0.375000
vt 1.000000 0.375000
vt 0.000000 0.250000
vt 1.000000 0.250000
vt 0.000000 0.125000
vt 1.000000 0.125000
vt 0.937500 0.875000
vt 0.937500 0.750000
vt 0.937500 0.625000
vt 0.937500 0.500000
vt 0.937500 0.375000
vt 0.937500 0.250000
vt 0.937500 0.125000
vt 0.875000 0.875000
vt 0.875000 0.750000
vt 0.875000 0.625000
vt 0.875000 0.500000
vt 0.875000 0.375000
vt 0.875000 0.250000
vt 0.875000 0.125000
vt 0.812500 0.875000
vt 0.812500 0.750000
vt 0.812500 0.625000
vt 0.812500 0.500000
vt 0.812500 0.375000
vt 0.812500 0.250000
vt 0.812500 0.125000
vt 0.750000 0.875000
vt 0.750000 0.750000
vt 0.750000 0.250000
s 0
usemtl マテリアル
f 3/3/1 2/2/1 8/8/1 9/9/1
f 1/1/2 113/150/2 6/6/2 7/7/2
f 112/149/3 62/77/3 5/5/3
f 61/61/4 4/4/4 11/11/4
f 114/151/5 3/3/5 9/9/5 10/10/5
f 2/2/6 1/1/6 7/7/6 8/8/6
f 113/150/7 112/149/7 5/5/7 6/6/7
f 4/4/8 114/151/8 10/10/8 11/11/8
f 61/62/9 11/11/9 18/18/9
f 10/10/10 9/9/10 16/16/10 17/17/10
f 8/8/11 7/7/11 14/14/11 15/15/11
f 6/6/12 5/5/12 12/12/12 13/13/12
f 11/11/13 10/10/13 17/17/13 18/18/13
f 9/9/14 8/8/14 15/15/14 16/16/14
f 7/7/15 6/6/15 13/13/15 14/14/15
f 5/5/16 62/78/16 12/12/16
f 13/13/17 12/12/17 19/19/17 20/20/17
f 18/18/18 17/17/18 24/24/18 25/25/18
f 16/16/19 15/15/19 22/22/19 23/23/19
f 14/14/20 13/13/20 20/20/20 21/21/20
f 12/12/21 62/79/21 19/19/21
f 61/63/22 18/18/22 25/25/22
f 17/17/23 16/16/23 23/23/23 24/24/23
f 15/15/24 14/14/24 21/21/24 22/22/24
f 25/25/25 24/24/25 31/31/25 32/32/25
f 23/23/26 22/22/26 29/29/26 30/30/26
f 21/21/27 20/20/27 27/27/27 28/28/27
f 19/19/28 62/80/28 26/26/28
f 61/64/29 25/25/29 32/32/29
f 24/24/30 23/23/30 30/30/30 31/31/30
f 22/22/31 21/21/31 28/28/31 29/29/31
f 20/20/32 19/19/32 26/26/32 27/27/32
f 26/26/33 62/81/33 33/33/33
f 61/65/34 32/32/34 39/39/34
f 31/31/35 30/30/35 37/37/35 38/38/35
f 29/29/36 28/28/36 35/35/36 36/36/36
f 27/27/37 26/26/37 33/33/37 34/34/37
f 32/32/38 31/31/38 38/38/38 39/39/38
f 30/30/39 29/29/39 36/36/39 37/37/39
f 28/28/40 27/27/40 34/34/40 35/35/40
f 38/38/41 37/37/41 44/44/41 45/45/41
f 36/36/42 35/35/42 42/42/42 43/43/42
f 34/34/43 33/33/43 40/40/43 41/41/43
f 39/39/44 38/38/44 45/45/44 46/46/44
f 37/37/45 36/36/45 43/43/45 44/44/45
f 35/35/46 34/34/46 41/41/46 42/42/46
f 33/33/47 62/82/47 40/40/47
f 61/66/48 39/39/48 46/46/48
f 46/46/49 45/45/49 52/52/49 53/53/49
f 44/44/50 43/43/50 50/50/50 51/51/50
f 42/42/51 41/41/51 48/48/51 49/49/51
f 40/40/52 62/83/52 47/47/52
f 61/67/53 46/46/53 53/53/53
f 45/45/54 44/44/54 51/51/54 52/52/54
f 43/43/55 42/42/55 49/49/55 50/50/55
f 41/41/56 40/40/56 47/47/56 48/48/56
f 51/51/57 50/50/57 57/57/57 58/58/57
f 49/49/58 48/48/58 55/55/58 56/56/58
f 47/47/59 62/84/59 54/54/59
f 61/68/60 53/53/60 60/60/60
f 52/52/61 51/51/61 58/58/61 59/59/61
f 50/50/62 49/49/62 56/56/62 57/57/62
f 48/48/63 47/47/63 54/54/63 55/55/63
f 53/53/64 52/52/64 59/59/64 60/60/64
f 61/69/65 60/60/65 69/99/65
f 59/59/66 58/58/66 67/97/66 68/98/66
f 57/57/67 56/56/67 65/95/67 66/96/67
f 55/55/68 54/54/68 63/93/68 64/94/68
f 60/60/69 59/59/69 68/98/69 69/99/69
f 58/58/70 57/57/70 66/96/70 67/97/70
f 56/56/71 55/55/71 64/94/71 65/95/71
f 54/54/72 62/85/72 63/93/72
f 66/96/73 65/95/73 72/102/73 73/103/73
f 64/94/74 63/93/74 70/100/74 71/101/74
f 69/99/75 68/98/75 75/105/75 76/106/75
f 67/97/76 66/96/76 73/103/76 74/104/76
f 65/95/77 64/94/77 71/101/77 72/102/77
f 63/93/78 62/86/78 70/100/78
f 61/70/79 69/99/79 76/106/79
f 68/98/80 67/97/80 74/104/80 75/105/80
f 76/106/81 75/105/81 82/112/81 83/113/81
f 74/104/82 73/103/82 80/110/82 81/111/82
f 72/102/83 71/101/83 78/108/83 79/109/83
f 70/100/84 62/87/84 77/107/84
f 61/71/85 76/106/85 83/113/85
f 75/105/86 74/104/86 81/111/86 82/112/86
f 73/103/87 72/102/87 79/109/87 80/110/87
f 71/101/88 70/100/88 77/107/88 78/108/88
f 79/109/89 78/108/89 85/116/89 86/118/89
f 77/107/90 62/88/90 84/114/90
f 61/72/91 83/113/91 90/126/91
f 82/112/92 81/111/92 88/122/92 89/124/92
f 80/110/93 79/109/93 86/118/93 87/120/93
f 78/108/94 77/107/94 84/114/94 85/116/94
f 83/113/95 82/112/95 89/124/95 90/126/95
f 81/111/96 80/110/96 87/120/96 88/122/96
f 61/73/97 90/127/97 97/134/97
f 89/125/98 88/123/98 95/132/98 96/133/98
f 87/121/99 86/119/99 93/130/99 94/131/99
f 85/117/100 84/115/100 91/128/100 92/129/100
f 90/127/101 89/125/101 96/133/101 97/134/101
f 88/123/102 87/121/102 94/131/102 95/132/102
f 86/119/103 85/117/103 92/129/103 93/130/103
f 84/115/104 62/89/104 91/128/104
f 92/129/105 91/128/105 98/135/105 99/136/105
f 97/134/106 96/133/106 103/140/106 104/141/106
f 95/132/107 94/131/107 101/138/107 102/139/107
f 93/130/108 92/129/108 99/136/108 100/137/108
f 91/128/109 62/90/109 98/135/109
f 61/74/110 97/134/110 104/141/110
f 96/133/111 95/132/111 102/139/111 103/140/111
f 94/131/112 93/130/112 100/137/112 101/138/112
f 104/141/113 103/140/113 110/147/113 111/148/113
f 102/139/114 101/138/114 108/145/114 109/146/114
f 100/137/115 99/136/115 106/143/115 107/144/115
f 98/135/116 62/91/116 105/142/116
f 61/75/117 104/141/117 111/148/117
f 103/140/118 102/139/118 109/146/118 110/147/118
f 101/138/119 100/137/119 107/144/119 108/145/119
f 99/136/120 98/135/120 105/142/120 106/143/120
f 105/142/121 62/92/121 112/149/121
f 61/76/122 111/148/122 4/4/122
f 110/147/123 109/146/123 3/3/123 114/151/123
f 108/145/124 107/144/124 1/1/124 2/2/124
f 106/143/125 105/142/125 112/149/125 113/150/125
f 111/148/126 110/147/126 114/151/126 4/4/126
f 109/146/127 108/145/127 2/2/127 3/3/127
f 107/144/128 106/143/128 113/150/128 1/1/128
